<?xml version="1.0" encoding="UTF-8" standalone="no" ?>
<!DOCTYPE svg PUBLIC "-//W3C//DTD SVG 1.1//EN" "http://www.w3.org/Graphics/SVG/1.1/DTD/svg11.dtd">
<svg xmlns="http://www.w3.org/2000/svg" xmlns:xlink="http://www.w3.org/1999/xlink" version="1.1" width="493.89500000000004" height="416.9328" xml:space="preserve">
<desc>Created with Fabric.js 1.6.0-rc.1</desc>
<defs></defs>
<g style="stroke: none; stroke-width: 1; stroke-dasharray: none; stroke-linecap: butt; stroke-linejoin: miter; stroke-miterlimit: 10; fill: none; fill-rule: nonzero; opacity: 1;" transform="translate(77.43000000000006 92.18999999999997) rotate(355.77) scale(3.26 4.35)" >
  <path d="m 139.934 102.722 c 0 0 1.886 6.234 9.426 7.105 c 0 0 8.988 0.289 8.844 -7.395 l -4.93 -2.176 c -0.001 0.001 0.388 8.822 -13.34 2.466 z" style="stroke: none; stroke-width: 1; stroke-dasharray: none; stroke-linecap: butt; stroke-linejoin: miter; stroke-miterlimit: 10; fill: #c2dc00; fill-rule: nonzero; opacity: 1;" transform=" matrix(1 0 0 1 -132.01598 -78.339) " stroke-linecap="round" />
  <path d="m 161.685 89.093 c 0 0 -1.885 -6.232 -9.425 -7.104 c 0 0 -8.989 -0.289 -8.845 7.395 l 4.93 2.176 c 0 0 -0.387 -8.82 13.34 -2.467 z" style="stroke: none; stroke-width: 1; stroke-dasharray: none; stroke-linecap: butt; stroke-linejoin: miter; stroke-miterlimit: 10; fill: #c2dc00; fill-rule: nonzero; opacity: 1;" transform=" matrix(1 0 0 1 -132.01598 -78.339) " stroke-linecap="round" />
  <path d="m 145.535 84.15 c 0 0 -1.687 4.654 7.015 9.15 c 8.7 4.494 7.396 12.758 2.465 15.078 c -4.931 2.32 5.801 -2.211 -4.35 -8.355 c -10.149 -6.145 -9.389 -11.973 -5.13 -15.873 z" style="stroke: none; stroke-width: 1; stroke-dasharray: none; stroke-linecap: butt; stroke-linejoin: miter; stroke-miterlimit: 10; fill: #c2dc00; fill-rule: nonzero; opacity: 1;" transform=" matrix(1 0 0 1 -132.01598 -78.339) " stroke-linecap="round" />
  <path d="m 167.168 97.785 c -1.205 9.621 -9.981 16.443 -19.602 15.238 c -9.319 -1.168 -15.992 -9.443 -15.305 -18.707 c -0.027 0.18 -0.072 0.355 -0.096 0.539 c -1.302 10.4 6.072 19.889 16.475 21.191 c 10.4 1.303 19.89 -6.072 21.193 -16.475 c 1.302 -10.4 -6.073 -19.889 -16.476 -21.191 c -0.182 -0.023 -0.361 -0.023 -0.545 -0.041 c 9.149 1.619 15.524 10.125 14.356 19.446 z" style="stroke: none; stroke-width: 1; stroke-dasharray: none; stroke-linecap: butt; stroke-linejoin: miter; stroke-miterlimit: 10; fill: #f2b36a; fill-rule: nonzero; opacity: 0;" transform=" matrix(1 0 0 1 -132.01598 -78.339) " stroke-linecap="round" />
</g>
<g style="stroke: none; stroke-width: 1; stroke-dasharray: none; stroke-linecap: butt; stroke-linejoin: miter; stroke-miterlimit: 10; fill: none; fill-rule: nonzero; opacity: 1;" transform="translate(341.81000000000006 236.04999999999995) rotate(271.06) scale(0.39 0.37)" >
  <path d="M 261.32 183.865 L 141.029 63.839 c -4.752 -4.74 -12.439 -4.74 -17.191 0 l 0 0 l 0 0 L 3.642 183.781 c -7.94 7.627 -1.949 21.029 8.83 20.728 h 239.92 C 263.136 204.786 268.959 191.48 261.32 183.865 z M 132.439 89.548 l 91.021 90.829 H 41.418 L 132.439 89.548 z" style="stroke: none; stroke-width: 1; stroke-dasharray: none; stroke-linecap: butt; stroke-linejoin: miter; stroke-miterlimit: 10; fill: #c2dc00; fill-rule: nonzero; opacity: 1;" transform=" matrix(1 0 0 1 0 0) " stroke-linecap="round" />
</g>
<g style="stroke: none; stroke-width: 1; stroke-dasharray: none; stroke-linecap: butt; stroke-linejoin: miter; stroke-miterlimit: 10; fill: none; fill-rule: nonzero; opacity: 1;" transform="translate(351.43000000000006 203.12) scale(0.07 0.07) matrix(1 0 0 -1 0 511)" >
  <path d="M 255 0 C 114.75 0 0 114.75 0 255 s 114.75 255 255 255 s 255 -114.75 255 -255 S 395.25 0 255 0 z" style="stroke: none; stroke-width: 1; stroke-dasharray: none; stroke-linecap: butt; stroke-linejoin: miter; stroke-miterlimit: 10; fill: #c2dc00; fill-rule: nonzero; opacity: 1;" transform=" matrix(1 0 0 1 0 0) " stroke-linecap="round" />
</g>
<g style="stroke: none; stroke-width: 1; stroke-dasharray: none; stroke-linecap: butt; stroke-linejoin: miter; stroke-miterlimit: 10; fill: none; fill-rule: nonzero; opacity: 1;" transform="translate(160.39999999999998 246.31) rotate(358.61) scale(1.92 2.15) matrix(-1 0 0 1 28.76 0) " >
  <path d="m 164.879 86.792 c 0 -5.982 -4.159 -9.322 -9.23 -11.18 c -3.675 2.602 -10.093 8.967 -10.795 22.031 c -0.046 0.84 -0.04 1.645 -0.012 2.432 c 8.106 -0.575 20.037 -3.144 20.037 -13.283 z" style="stroke: none; stroke-width: 1; stroke-dasharray: none; stroke-linecap: butt; stroke-linejoin: miter; stroke-miterlimit: 10; fill: #ffc440; fill-rule: nonzero; opacity: 0;" transform=" matrix(1 0 0 1 -137.12149 -73.357909) " stroke-linecap="round" />
  <path d="m 153.967 75.085 c -7.65 -2.289 -16.554 -1.643 -16.554 -1.643 l 0 19.475 c 2 -11.523 11.096 -16.107 16.554 -17.832 z" style="stroke: none; stroke-width: 1; stroke-dasharray: none; stroke-linecap: butt; stroke-linejoin: miter; stroke-miterlimit: 10; fill: #f5574b; fill-rule: nonzero; opacity: 0;" transform=" matrix(1 0 0 1 -137.12149 -73.357909) " stroke-linecap="round" />
  <path d="m 144.842 100.076 c -0.028 -0.787 -0.034 -1.592 0.012 -2.432 c 0.702 -13.064 7.12 -19.43 10.795 -22.031 c 1.507 -1.066 2.556 -1.504 2.556 -1.504 c 0 0 -1.705 0.207 -4.14 0.977 c -5.458 1.725 -14.591 6.309 -16.554 17.832 c -0.336 1.979 -0.477 4.148 -0.334 6.559 c 1.336 22.695 24.031 21.693 24.031 21.693 c 0 0 -15.785 -4.661 -16.366 -21.094 z" style="stroke: none; stroke-width: 1; stroke-dasharray: none; stroke-linecap: butt; stroke-linejoin: miter; stroke-miterlimit: 10; fill: #c2dc00; fill-rule: nonzero; opacity: 1;" transform=" matrix(1 0 0 1 -137.12149 -73.357909) " stroke-linecap="round" />
</g>
<g style="stroke: none; stroke-width: 1; stroke-dasharray: none; stroke-linecap: butt; stroke-linejoin: miter; stroke-miterlimit: 10; fill: none; fill-rule: nonzero; opacity: 1;" transform="translate(243.02999999999997 157.07999999999998) rotate(283.45) scale(0.89 0.84)" >
  <path d="M 99.875 77.76 c 0.01 -0.909 -0.09 -1.819 -0.14 -2.729 c -0.07 -0.91 -0.13 -1.82 -0.2 -2.73 c -0.21 -1.811 -0.42 -3.62 -0.68 -5.42 c -0.16 -0.891 -0.32 -1.77 -0.48 -2.66 c -0.08 -0.44 -0.16 -0.89 -0.24 -1.32 c -0.069 -0.449 -0.16 -0.89 -0.27 -1.319 c -0.4 -1.72 -0.78 -3.45 -1.23 -5.13 c -0.479 -1.66 -0.97 -3.301 -1.43 -4.9 c -0.55 -1.58 -1.09 -3.12 -1.62 -4.62 c -0.13 -0.38 -0.26 -0.76 -0.4 -1.12 c -0.14 -0.359 -0.289 -0.72 -0.439 -1.08 c -0.29 -0.709 -0.58 -1.41 -0.86 -2.109 c -0.29 -0.69 -0.569 -1.37 -0.85 -2.04 c -0.28 -0.681 -0.59 -1.3 -0.88 -1.931 c -0.59 -1.26 -1.16 -2.459 -1.7 -3.6 c -0.271 -0.59 -0.56 -1.12 -0.84 -1.641 c -0.28 -0.529 -0.55 -1.049 -0.81 -1.539 c -0.529 -0.99 -1.029 -1.93 -1.489 -2.78 c -0.12 -0.22 -0.23 -0.43 -0.341 -0.64 c -0.119 -0.19 -0.239 -0.39 -0.35 -0.58 c -0.229 -0.38 -0.45 -0.75 -0.65 -1.09 c -1.659 -2.77 -2.609 -4.36 -2.609 -4.36 c -0.85 -1.41 -1.97 -2.8 -3.271 -3.96 c -2.769 -2.47 -6.109 -3.88 -9.54 -4.25 c -1.069 0.76 -2.13 1.8 -3.149 3.16 c -4.65 6.13 -6.09 2.21 -12.79 7.31 c -1.16 0.89 -2.021 1.87 -2.62 2.88 c -1.271 5.82 0.55 12.14 5.31 16.4 l 0.11 0.1 c 0 0 1.07 0.95 2.94 2.62 c 0.239 0.21 0.489 0.44 0.75 0.671 c 0.13 0.109 0.26 0.229 0.39 0.35 c 0.14 0.13 0.27 0.26 0.4 0.39 c 0.529 0.53 1.109 1.101 1.739 1.71 c 0.311 0.301 0.63 0.62 0.96 0.95 c 0.33 0.319 0.69 0.659 1 1.021 c 0.66 0.719 1.36 1.469 2.08 2.26 c 0.36 0.399 0.76 0.789 1.11 1.22 c 0.35 0.43 0.71 0.86 1.08 1.3 c 0.37 0.45 0.74 0.9 1.13 1.359 c 0.189 0.23 0.38 0.461 0.58 0.701 c 0.18 0.23 0.359 0.48 0.54 0.72 c 0.729 0.979 1.49 1.989 2.26 3.03 c 0.71 1.069 1.44 2.17 2.19 3.279 c 0.71 1.131 1.369 2.311 2.09 3.5 c 0.189 0.301 0.35 0.61 0.5 0.91 c 0.17 0.311 0.33 0.62 0.49 0.93 c 0.319 0.621 0.649 1.25 0.979 1.881 c 0.61 1.27 1.18 2.569 1.78 3.89 c 0.26 0.67 0.52 1.34 0.79 2.021 c 0.25 0.68 0.55 1.35 0.76 2.039 c 0.44 1.381 0.96 2.76 1.31 4.17 c 0.19 0.711 0.391 1.42 0.58 2.131 c 0.16 0.709 0.311 1.42 0.471 2.129 c 0.08 0.351 0.159 0.711 0.239 1.061 c 0.07 0.359 0.12 0.721 0.19 1.08 c 0.12 0.721 0.24 1.43 0.36 2.141 c 0.109 0.709 0.18 1.42 0.27 2.129 c 0.08 0.711 0.18 1.42 0.22 2.131 c 0.051 0.699 0.101 1.4 0.15 2.1 c 0.04 0.7 0.04 1.391 0.07 2.07 c 0.069 1.38 0 2.729 0 4.05 c -0.12 2.63 -0.301 5.149 -0.65 7.47 c -0.33 2.31 -0.72 4.439 -1.17 6.31 c -0.43 1.869 -0.9 3.49 -1.32 4.81 c -0.42 1.33 -0.81 2.34 -1.069 3.03 c -0.141 0.34 -0.24 0.6 -0.311 0.77 c -0.04 0.08 -0.06 0.15 -0.09 0.19 c -0.01 0.05 -0.03 0.069 -0.03 0.069 v 0.011 c -0.229 0.51 -0.12 1.12 0.32 1.51 c 0.54 0.479 1.36 0.43 1.84 -0.11 c 0 0 0.021 -0.01 0.05 -0.05 c 0.04 -0.05 0.09 -0.1 0.16 -0.18 c 0.13 -0.17 0.33 -0.41 0.58 -0.72 c 0.5 -0.631 1.21 -1.54 2.05 -2.771 c 0.851 -1.21 1.84 -2.72 2.88 -4.51 c 1.06 -1.78 2.15 -3.86 3.24 -6.19 c 1.12 -2.33 2.15 -4.939 3.15 -7.77 c 0.46 -1.42 0.979 -2.881 1.37 -4.41 c 0.21 -0.76 0.439 -1.53 0.63 -2.32 c 0.189 -0.789 0.37 -1.59 0.56 -2.4 c 0.2 -0.809 0.34 -1.629 0.49 -2.459 c 0.15 -0.83 0.33 -1.67 0.45 -2.53 c 0.109 -0.851 0.229 -1.71 0.35 -2.57 c 0.05 -0.43 0.12 -0.87 0.16 -1.31 c 0.04 -0.44 0.08 -0.87 0.12 -1.311 c 0.07 -0.89 0.14 -1.779 0.22 -2.67 c 0.03 -0.89 0.061 -1.789 0.09 -2.68 C 99.985 81.399 99.905 79.59 99.875 77.76 z" style="stroke: none; stroke-width: 1; stroke-dasharray: none; stroke-linecap: butt; stroke-linejoin: miter; stroke-miterlimit: 10; fill: #fa0505; fill-rule: nonzero; opacity: 1;" transform=" matrix(1 0 0 1 0 0) " stroke-linecap="round" />
  <path d="M 52.615 24.68 c 6.7 -5.1 8.14 -1.18 12.79 -7.31 c 1.02 -1.36 2.08 -2.4 3.149 -3.16 c 3.771 -2.64 7.721 -1.62 11.16 2.41 c -0.859 -1.01 -1.41 -2.34 -2.39 -3.35 c -2.37 -2.47 -5.231 -3.71 -8.68 -3.52 c -3.091 0.17 -6.11 1.99 -9.23 1.63 c -2.53 -0.29 -4.77 -1.9 -6.57 -3.61 c -0.3 -0.29 -0.6 -0.57 -0.899 -0.86 c -0.431 -0.36 -0.83 -0.75 -1.28 -1.11 c -0.441 -0.36 -0.89 -0.72 -1.35 -1.06 c -0.46 -0.35 -0.94 -0.67 -1.42 -1 c -0.48 -0.32 -0.98 -0.6 -1.471 -0.91 c -0.52 -0.26 -1.01 -0.55 -1.529 -0.79 c -0.521 -0.23 -1.021 -0.48 -1.551 -0.67 c -0.25 -0.1 -0.51 -0.2 -0.77 -0.29 c -0.26 -0.1 -0.521 -0.171 -0.78 -0.25 c -0.26 -0.07 -0.51 -0.16 -0.76 -0.23 c -0.26 -0.05 -0.521 -0.11 -0.771 -0.17 c -0.5 -0.13 -1.01 -0.19 -1.489 -0.26 c -0.481 -0.08 -0.96 -0.1 -1.42 -0.13 C 37.135 0.03 36.905 0 36.685 0 c -0.22 0.01 -0.439 0.01 -0.649 0.02 c -0.84 -0.02 -1.61 0.11 -2.29 0.18 c -0.67 0.12 -1.25 0.23 -1.72 0.34 c -0.931 0.27 -1.46 0.42 -1.46 0.42 s 0.55 -0.07 1.5 -0.19 c 0.479 -0.04 1.06 -0.05 1.72 -0.08 c 0.66 0.04 1.41 0.03 2.21 0.17 c 0.2 0.02 0.4 0.05 0.61 0.08 c 0.199 0.03 0.409 0.09 0.619 0.13 c 0.421 0.1 0.86 0.17 1.301 0.32 c 0.43 0.14 0.88 0.26 1.319 0.461 c 0.221 0.08 0.45 0.17 0.67 0.26 c 0.23 0.09 0.44 0.21 0.67 0.31 c 0.221 0.11 0.44 0.21 0.671 0.33 c 0.22 0.12 0.43 0.25 0.649 0.38 c 0.45 0.23 0.87 0.53 1.3 0.81 c 0.431 0.29 0.841 0.62 1.261 0.92 c 0.39 0.34 0.81 0.66 1.19 1.02 c 0.38 0.36 0.77 0.71 1.13 1.09 c 0.37 0.37 0.721 0.75 1.061 1.14 c 0.35 0.37 0.67 0.79 0.989 1.17 c 0.311 0.4 0.62 0.79 0.921 1.19 c 0.569 0.79 1.109 1.58 1.579 2.34 c 0.101 0.14 0.19 0.29 0.271 0.43 c 0.45 1.5 0.769 3.22 0.14 4.71 c -0.58 1.41 -1.859 2.39 -2.729 3.61 c -3.22 4.53 -2.92 11.69 0.01 16.291 c -0.18 -0.41 -2.41 -5.681 0.37 -10.291 C 50.595 26.55 51.455 25.57 52.615 24.68 z" style="stroke: none; stroke-width: 1; stroke-dasharray: none; stroke-linecap: butt; stroke-linejoin: miter; stroke-miterlimit: 10; fill: #c2dc03; fill-rule: nonzero; opacity: 1;" transform=" matrix(1 0 0 1 0 0) " stroke-linecap="round" />
  <path d="M 99.875 77.76 c 0.01 -0.909 -0.09 -1.819 -0.14 -2.729 c -0.07 -0.91 -0.13 -1.82 -0.2 -2.73 c -0.21 -1.811 -0.42 -3.62 -0.68 -5.42 c -0.16 -0.891 -0.32 -1.77 -0.48 -2.66 c -0.08 -0.44 -0.16 -0.89 -0.24 -1.32 c -0.069 -0.449 -0.16 -0.89 -0.27 -1.319 c -0.4 -1.72 -0.78 -3.45 -1.23 -5.13 c -0.479 -1.66 -0.97 -3.301 -1.43 -4.9 c -0.55 -1.58 -1.09 -3.12 -1.62 -4.62 c -0.13 -0.38 -0.26 -0.76 -0.4 -1.12 c -0.14 -0.359 -0.289 -0.72 -0.439 -1.08 c -0.29 -0.709 -0.58 -1.41 -0.86 -2.109 c -0.29 -0.69 -0.569 -1.37 -0.85 -2.04 c -0.28 -0.681 -0.59 -1.3 -0.88 -1.931 c -0.59 -1.26 -1.16 -2.459 -1.7 -3.6 c -0.271 -0.59 -0.56 -1.12 -0.84 -1.641 c -0.28 -0.529 -0.55 -1.049 -0.81 -1.539 c -0.529 -0.99 -1.029 -1.93 -1.489 -2.78 c -0.12 -0.22 -0.23 -0.43 -0.341 -0.64 c -0.119 -0.19 -0.239 -0.39 -0.35 -0.58 c -0.229 -0.38 -0.45 -0.75 -0.65 -1.09 c -1.659 -2.77 -2.609 -4.36 -2.609 -4.36 c -0.85 -1.41 -1.97 -2.8 -3.271 -3.96 c -2.769 -2.47 -6.109 -3.88 -9.54 -4.25 c -1.069 0.76 -2.13 1.8 -3.149 3.16 c -2.594 3.419 -4.189 3.712 -6.256 4.187 C 84.474 38.769 99.91 75.11 85.827 102.862 c 0.014 1.063 -0.012 2.111 -0.012 3.138 c -0.12 2.63 -0.301 5.149 -0.65 7.47 c -0.33 2.31 -0.72 4.439 -1.17 6.31 c -0.43 1.869 -0.9 3.49 -1.32 4.81 c -0.42 1.33 -0.81 2.34 -1.069 3.03 c -0.141 0.34 -0.24 0.6 -0.311 0.77 c -0.04 0.08 -0.06 0.15 -0.09 0.19 c -0.01 0.05 -0.03 0.069 -0.03 0.069 v 0.011 c -0.229 0.51 -0.12 1.12 0.32 1.51 c 0.54 0.479 1.36 0.43 1.84 -0.11 c 0 0 0.021 -0.01 0.05 -0.05 c 0.04 -0.05 0.09 -0.1 0.16 -0.18 c 0.13 -0.17 0.33 -0.41 0.58 -0.72 c 0.5 -0.631 1.21 -1.54 2.05 -2.771 c 0.851 -1.21 1.84 -2.72 2.88 -4.51 c 1.06 -1.78 2.15 -3.86 3.24 -6.19 c 1.12 -2.33 2.15 -4.939 3.15 -7.77 c 0.46 -1.42 0.979 -2.881 1.37 -4.41 c 0.21 -0.76 0.439 -1.53 0.63 -2.32 c 0.189 -0.789 0.37 -1.59 0.56 -2.4 c 0.2 -0.809 0.34 -1.629 0.49 -2.459 c 0.15 -0.83 0.33 -1.67 0.45 -2.53 c 0.109 -0.851 0.229 -1.71 0.35 -2.57 c 0.05 -0.43 0.12 -0.87 0.16 -1.31 c 0.04 -0.44 0.08 -0.87 0.12 -1.311 c 0.07 -0.89 0.14 -1.779 0.22 -2.67 c 0.03 -0.89 0.061 -1.789 0.09 -2.68 C 99.985 81.399 99.905 79.59 99.875 77.76 z" style="stroke: none; stroke-width: 1; stroke-dasharray: none; stroke-linecap: butt; stroke-linejoin: miter; stroke-miterlimit: 10; fill: #fa0505; fill-rule: nonzero; opacity: 1;" transform=" matrix(1 0 0 1 0 0) " stroke-linecap="round" />
  <path d="M 65.405 17.37 c 1.02 -1.36 2.08 -2.4 3.149 -3.16 c 3.771 -2.64 7.721 -1.62 11.16 2.41 c -0.859 -1.01 -1.41 -2.34 -2.39 -3.35 c -2.37 -2.47 -5.231 -3.71 -8.68 -3.52 c -3.091 0.17 -6.11 1.99 -9.23 1.63 c -2.53 -0.29 -4.77 -1.9 -6.57 -3.61 c -0.3 -0.29 -0.6 -0.57 -0.899 -0.86 c -0.431 -0.36 -0.83 -0.75 -1.28 -1.11 c -0.441 -0.36 -0.89 -0.72 -1.35 -1.06 c -0.46 -0.35 -0.94 -0.67 -1.42 -1 c -0.48 -0.32 -0.98 -0.6 -1.471 -0.91 c -0.52 -0.26 -1.01 -0.55 -1.529 -0.79 c -0.521 -0.23 -1.021 -0.48 -1.551 -0.67 c -0.25 -0.1 -0.51 -0.2 -0.77 -0.29 c -0.26 -0.1 -0.521 -0.171 -0.78 -0.25 c -0.26 -0.07 -0.51 -0.16 -0.76 -0.23 c -0.26 -0.05 -0.521 -0.11 -0.771 -0.17 c -0.5 -0.13 -1.01 -0.19 -1.489 -0.26 c -0.481 -0.08 -0.96 -0.1 -1.42 -0.13 C 37.135 0.03 36.905 0 36.685 0 c -0.22 0.01 -0.439 0.01 -0.649 0.02 c -0.84 -0.02 -1.61 0.11 -2.29 0.18 c -0.67 0.12 -1.25 0.23 -1.72 0.34 c -0.931 0.27 -1.46 0.42 -1.46 0.42 s 0.55 -0.07 1.5 -0.19 c 0.479 -0.04 1.06 -0.05 1.72 -0.08 c 0.66 0.04 1.41 0.03 2.21 0.17 c 0.2 0.02 0.4 0.05 0.61 0.08 c 0.199 0.03 0.409 0.09 0.619 0.13 c 0.421 0.1 0.86 0.17 1.301 0.32 c 0.43 0.14 0.88 0.26 1.319 0.461 c 0.221 0.08 0.45 0.17 0.67 0.26 c 0.23 0.09 0.44 0.21 0.67 0.31 c 0.221 0.11 0.44 0.21 0.671 0.33 c 0.22 0.12 0.43 0.25 0.649 0.38 c 0.45 0.23 0.87 0.53 1.3 0.81 c 0.431 0.29 0.841 0.62 1.261 0.92 c 0.39 0.34 0.81 0.66 1.19 1.02 c 0.38 0.36 0.77 0.71 1.13 1.09 c 0.37 0.37 0.721 0.75 1.061 1.14 c 0.35 0.37 0.67 0.79 0.989 1.17 c 0.311 0.4 0.62 0.79 0.921 1.19 c 0.569 0.79 1.109 1.58 1.579 2.34 c 0.101 0.14 0.19 0.29 0.271 0.43 c 0.415 1.382 0.709 2.949 0.262 4.352 c 2.291 1.172 4.522 2.497 6.683 3.965 C 61.216 21.082 62.812 20.789 65.405 17.37 z" style="stroke: none; stroke-width: 1; stroke-dasharray: none; stroke-linecap: butt; stroke-linejoin: miter; stroke-miterlimit: 10; fill: #c2dc03; fill-rule: nonzero; opacity: 1;" transform=" matrix(1 0 0 1 0 0) " stroke-linecap="round" />
</g>
<g style="stroke: none; stroke-width: 1; stroke-dasharray: none; stroke-linecap: butt; stroke-linejoin: miter; stroke-miterlimit: 10; fill: none; fill-rule: nonzero; opacity: 1;" transform="translate(179.5 271.02) rotate(163.71) scale(1.84 1.77) matrix(1 0 0 -1 0 39.75)" >
  <path d="m 177.028 98.324 c -8.126 2.68 -11.181 -2.402 -9.16 -5.367 c 2.022 -2.967 4.226 0.197 5.869 0.275 c 1.644 0.074 6.416 -1.348 5.06 -7.529 c -1.357 -6.182 -11.082 -4.52 -14.398 0.971 c -2.664 4.412 -3.789 13.586 -1.135 21.787 c 0.807 2.486 1.119 4.516 1.09 6.09 c 0.452 0.096 0.918 0.146 1.393 0.146 c 2.244 0 4.318 -1.102 5.44 -2.891 l 10.412 -16.594 c -1.076 1.319 -2.55 2.448 -4.571 3.112 z" style="stroke: none; stroke-width: 1; stroke-dasharray: none; stroke-linecap: butt; stroke-linejoin: miter; stroke-miterlimit: 10; fill: #295559; fill-rule: nonzero; opacity: 0;" transform=" matrix(1.0000000215973397 0 0 1.0000000215973397 -142.59525307967806 -75.94700164025316) " stroke-linecap="round" />
  <path d="m 184.453 85.72 c 0 0 0.266 3.773 -1.453 7.369 l 5.055 -8.111 c 1.123 -1.789 1.123 -3.799 0 -5.586 c -1.122 -1.789 -3.196 -2.695 -5.441 -2.695 l -6.086 0 c 8.113 1 7.925 9.023 7.925 9.023 z" style="stroke: none; stroke-width: 1; stroke-dasharray: none; stroke-linecap: butt; stroke-linejoin: miter; stroke-miterlimit: 10; fill: #4ea193; fill-rule: nonzero; opacity: 0;" transform=" matrix(1.0000000215973397 0 0 1.0000000215973397 -142.59525307967806 -75.94700164025316) " stroke-linecap="round" />
  <path d="m 170.293 76.585 c 0.279 -0.045 0.543 0.111 0.812 0.111 l -22.228 0 c -2.244 0 -4.318 0.879 -5.441 2.668 c -1.121 1.787 -1.121 3.879 0 5.668 l 12.742 20.254 c 0.021 -1.002 0.087 -1.971 0.205 -3.084 c 0 0.001 -0.553 -23.236 13.91 -25.617 z" style="stroke: none; stroke-width: 1; stroke-dasharray: none; stroke-linecap: butt; stroke-linejoin: miter; stroke-miterlimit: 10; fill: #4ea193; fill-rule: nonzero; opacity: 0;" transform=" matrix(1.0000000215973397 0 0 1.0000000215973397 -142.59525307967806 -75.94700164025316) " stroke-linecap="round" />
  <path d="m 171.104 76.697 l 5.423 0 c -1.504 -1 -3.295 -1 -5.423 0 z" style="stroke: none; stroke-width: 1; stroke-dasharray: none; stroke-linecap: butt; stroke-linejoin: miter; stroke-miterlimit: 10; fill: #f5f5f5; fill-rule: nonzero; opacity: 1;" transform=" matrix(1.0000000215973397 0 0 1.0000000215973397 -142.59525307967806 -75.94700164025316) " stroke-linecap="round" />
  <path d="m 181.599 95.212 c 0.573 -0.705 1.032 -1.463 1.401 -2.234 l -1.401 2.234 z" style="stroke: none; stroke-width: 1; stroke-dasharray: none; stroke-linecap: butt; stroke-linejoin: miter; stroke-miterlimit: 10; fill: #f5f5f5; fill-rule: nonzero; opacity: 1;" transform=" matrix(1.0000000215973397 0 0 1.0000000215973397 -142.59525307967806 -75.94700164025316) " stroke-linecap="round" />
  <path d="m 184.453 85.72 c 0 0 0.188 -8.023 -7.926 -9.023 l -5.423 0 c -0.269 0 -0.532 -0.156 -0.812 -0.111 c -14.463 2.381 -13.91 25.588 -13.91 25.588 c -0.118 1.113 -0.184 2.111 -0.205 3.113 l 4.127 6.549 c 0.885 1.41 2.363 2.377 4.049 2.729 c 0.029 -1.574 -0.283 -3.609 -1.09 -6.098 c -2.654 -8.199 -1.529 -17.377 1.135 -21.789 c 3.316 -5.49 13.041 -7.154 14.398 -0.973 c 1.356 6.182 -3.416 7.604 -5.06 7.527 c -1.644 -0.077 -3.847 -3.24 -5.869 -0.275 c -2.021 2.965 1.034 8.047 9.16 5.367 c 2.021 -0.664 3.495 -1.793 4.57 -3.111 L 183 93.089 c 1.719 -3.595 1.453 -7.369 1.453 -7.369 z" style="stroke: none; stroke-width: 1; stroke-dasharray: none; stroke-linecap: butt; stroke-linejoin: miter; stroke-miterlimit: 10; fill: #c2dc00; fill-rule: nonzero; opacity: 1;" transform=" matrix(1.0000000215973397 0 0 1.0000000215973397 -142.59525307967806 -75.94700164025316) " stroke-linecap="round" />
</g>
<g style="stroke: none; stroke-width: 1; stroke-dasharray: none; stroke-linecap: butt; stroke-linejoin: miter; stroke-miterlimit: 10; fill: none; fill-rule: nonzero; opacity: 1;" transform="translate(10 112.95999999999998) rotate(0.1) scale(0.22 0.3)" >
  <path d="M 250.981 0 v 264.407 c -13.689 -7.868 -30.001 -12.444 -47.5 -12.444 v 155 c 48.248 0 87.5 -34.766 87.5 -77.5 V 0 H 250.981 z" style="stroke: none; stroke-width: 1; stroke-dasharray: none; stroke-linecap: butt; stroke-linejoin: miter; stroke-miterlimit: 10; fill: #c2dc00; fill-rule: nonzero; opacity: 1;" transform=" matrix(1 0 0 1 0 0) " stroke-linecap="round" />
  <path d="M 115.981 329.463 c 0 42.734 39.252 77.5 87.5 77.5 v -155 C 155.234 251.963 115.981 286.729 115.981 329.463 z" style="stroke: none; stroke-width: 1; stroke-dasharray: none; stroke-linecap: butt; stroke-linejoin: miter; stroke-miterlimit: 10; fill: #c2dc00; fill-rule: nonzero; opacity: 1;" transform=" matrix(1 0 0 1 0 0) " stroke-linecap="round" />
</g>
<g style="stroke: none; stroke-width: 1; stroke-dasharray: none; stroke-linecap: butt; stroke-linejoin: miter; stroke-miterlimit: 10; fill: none; fill-rule: nonzero; opacity: 1;" transform="translate(102.72000000000003 235.38) scale(0.05 0.04)" >
  <path d="M 255 0 C 114.75 0 0 114.75 0 255 s 114.75 255 255 255 s 255 -114.75 255 -255 S 395.25 0 255 0 z" style="stroke: none; stroke-width: 1; stroke-dasharray: none; stroke-linecap: butt; stroke-linejoin: miter; stroke-miterlimit: 10; fill: #c2dc00; fill-rule: nonzero; opacity: 1;" transform=" matrix(1 0 0 1 0 0) " stroke-linecap="round" />
</g>
<g style="stroke: none; stroke-width: 1; stroke-dasharray: none; stroke-linecap: butt; stroke-linejoin: miter; stroke-miterlimit: 10; fill: none; fill-rule: nonzero; opacity: 1;" transform="translate(205.95000000000005 296.54999999999995) rotate(183.56) scale(1.35 1.19)" >
  <path d="m 177.028 98.324 c -8.126 2.68 -11.181 -2.402 -9.16 -5.367 c 2.022 -2.967 4.226 0.197 5.869 0.275 c 1.644 0.074 6.416 -1.348 5.06 -7.529 c -1.357 -6.182 -11.082 -4.52 -14.398 0.971 c -2.664 4.412 -3.789 13.586 -1.135 21.787 c 0.807 2.486 1.119 4.516 1.09 6.09 c 0.452 0.096 0.918 0.146 1.393 0.146 c 2.244 0 4.318 -1.102 5.44 -2.891 l 10.412 -16.594 c -1.076 1.319 -2.55 2.448 -4.571 3.112 z" style="stroke: none; stroke-width: 1; stroke-dasharray: none; stroke-linecap: butt; stroke-linejoin: miter; stroke-miterlimit: 10; fill: #295559; fill-rule: nonzero; opacity: 0;" transform=" matrix(1.0000000215973397 0 0 1.0000000215973397 -142.59525307967806 -75.94700164025316) " stroke-linecap="round" />
  <path d="m 184.453 85.72 c 0 0 0.266 3.773 -1.453 7.369 l 5.055 -8.111 c 1.123 -1.789 1.123 -3.799 0 -5.586 c -1.122 -1.789 -3.196 -2.695 -5.441 -2.695 l -6.086 0 c 8.113 1 7.925 9.023 7.925 9.023 z" style="stroke: none; stroke-width: 1; stroke-dasharray: none; stroke-linecap: butt; stroke-linejoin: miter; stroke-miterlimit: 10; fill: #4ea193; fill-rule: nonzero; opacity: 0;" transform=" matrix(1.0000000215973397 0 0 1.0000000215973397 -142.59525307967806 -75.94700164025316) " stroke-linecap="round" />
  <path d="m 170.293 76.585 c 0.279 -0.045 0.543 0.111 0.812 0.111 l -22.228 0 c -2.244 0 -4.318 0.879 -5.441 2.668 c -1.121 1.787 -1.121 3.879 0 5.668 l 12.742 20.254 c 0.021 -1.002 0.087 -1.971 0.205 -3.084 c 0 0.001 -0.553 -23.236 13.91 -25.617 z" style="stroke: none; stroke-width: 1; stroke-dasharray: none; stroke-linecap: butt; stroke-linejoin: miter; stroke-miterlimit: 10; fill: #4ea193; fill-rule: nonzero; opacity: 0;" transform=" matrix(1.0000000215973397 0 0 1.0000000215973397 -142.59525307967806 -75.94700164025316) " stroke-linecap="round" />
  <path d="m 171.104 76.697 l 5.423 0 c -1.504 -1 -3.295 -1 -5.423 0 z" style="stroke: none; stroke-width: 1; stroke-dasharray: none; stroke-linecap: butt; stroke-linejoin: miter; stroke-miterlimit: 10; fill: #f5f5f5; fill-rule: nonzero; opacity: 0;" transform=" matrix(1.0000000215973397 0 0 1.0000000215973397 -142.59525307967806 -75.94700164025316) " stroke-linecap="round" />
  <path d="m 181.599 95.212 c 0.573 -0.705 1.032 -1.463 1.401 -2.234 l -1.401 2.234 z" style="stroke: none; stroke-width: 1; stroke-dasharray: none; stroke-linecap: butt; stroke-linejoin: miter; stroke-miterlimit: 10; fill: #f5f5f5; fill-rule: nonzero; opacity: 0;" transform=" matrix(1.0000000215973397 0 0 1.0000000215973397 -142.59525307967806 -75.94700164025316) " stroke-linecap="round" />
  <path d="m 184.453 85.72 c 0 0 0.188 -8.023 -7.926 -9.023 l -5.423 0 c -0.269 0 -0.532 -0.156 -0.812 -0.111 c -14.463 2.381 -13.91 25.588 -13.91 25.588 c -0.118 1.113 -0.184 2.111 -0.205 3.113 l 4.127 6.549 c 0.885 1.41 2.363 2.377 4.049 2.729 c 0.029 -1.574 -0.283 -3.609 -1.09 -6.098 c -2.654 -8.199 -1.529 -17.377 1.135 -21.789 c 3.316 -5.49 13.041 -7.154 14.398 -0.973 c 1.356 6.182 -3.416 7.604 -5.06 7.527 c -1.644 -0.077 -3.847 -3.24 -5.869 -0.275 c -2.021 2.965 1.034 8.047 9.16 5.367 c 2.021 -0.664 3.495 -1.793 4.57 -3.111 L 183 93.089 c 1.719 -3.595 1.453 -7.369 1.453 -7.369 z" style="stroke: none; stroke-width: 1; stroke-dasharray: none; stroke-linecap: butt; stroke-linejoin: miter; stroke-miterlimit: 10; fill: #c2dc00; fill-rule: nonzero; opacity: 1;" transform=" matrix(1.0000000215973397 0 0 1.0000000215973397 -142.59525307967806 -75.94700164025316) " stroke-linecap="round" />
</g>
<g style="stroke: none; stroke-width: 1; stroke-dasharray: none; stroke-linecap: butt; stroke-linejoin: miter; stroke-miterlimit: 10; fill: none; fill-rule: nonzero; opacity: 1;" transform="translate(325.52 141.11) rotate(327.26) scale(1.24 1.01) matrix(-1 0 0 1 28.76 0) " >
  <path d="m 164.879 86.792 c 0 -5.982 -4.159 -9.322 -9.23 -11.18 c -3.675 2.602 -10.093 8.967 -10.795 22.031 c -0.046 0.84 -0.04 1.645 -0.012 2.432 c 8.106 -0.575 20.037 -3.144 20.037 -13.283 z" style="stroke: none; stroke-width: 1; stroke-dasharray: none; stroke-linecap: butt; stroke-linejoin: miter; stroke-miterlimit: 10; fill: #ffc440; fill-rule: nonzero; opacity: 0;" transform=" matrix(1 0 0 1 -137.12149 -73.357909) " stroke-linecap="round" />
  <path d="m 153.967 75.085 c -7.65 -2.289 -16.554 -1.643 -16.554 -1.643 l 0 19.475 c 2 -11.523 11.096 -16.107 16.554 -17.832 z" style="stroke: none; stroke-width: 1; stroke-dasharray: none; stroke-linecap: butt; stroke-linejoin: miter; stroke-miterlimit: 10; fill: #f5574b; fill-rule: nonzero; opacity: 0;" transform=" matrix(1 0 0 1 -137.12149 -73.357909) " stroke-linecap="round" />
  <path d="m 144.842 100.076 c -0.028 -0.787 -0.034 -1.592 0.012 -2.432 c 0.702 -13.064 7.12 -19.43 10.795 -22.031 c 1.507 -1.066 2.556 -1.504 2.556 -1.504 c 0 0 -1.705 0.207 -4.14 0.977 c -5.458 1.725 -14.591 6.309 -16.554 17.832 c -0.336 1.979 -0.477 4.148 -0.334 6.559 c 1.336 22.695 24.031 21.693 24.031 21.693 c 0 0 -15.785 -4.661 -16.366 -21.094 z" style="stroke: none; stroke-width: 1; stroke-dasharray: none; stroke-linecap: butt; stroke-linejoin: miter; stroke-miterlimit: 10; fill: #c2dc00; fill-rule: nonzero; opacity: 1;" transform=" matrix(1 0 0 1 -137.12149 -73.357909) " stroke-linecap="round" />
</g>
<g style="stroke: none; stroke-width: 1; stroke-dasharray: none; stroke-linecap: butt; stroke-linejoin: miter; stroke-miterlimit: 10; fill: none; fill-rule: nonzero; opacity: 1;" transform="translate(184.92000000000007 24.450000000000003) scale(0.31 0.4)" >
  <path d="M 256 512 c -8.657 0 -15.675 -7.018 -15.675 -15.675 V 255.968 c 0 -8.657 7.018 -15.675 15.675 -15.674 c 8.658 -0.001 15.676 7.017 15.676 15.675 v 240.356 C 271.676 504.982 264.658 512 256 512 z" style="stroke: none; stroke-width: 1; stroke-dasharray: none; stroke-linecap: butt; stroke-linejoin: miter; stroke-miterlimit: 10; fill: #ff0003; fill-rule: nonzero; opacity: 1;" transform=" matrix(1 0 0 1 0 0) " stroke-linecap="round" />
  <path d="M 352.063 39.728 c -52.969 -52.969 -139.157 -52.97 -192.127 0 c -20.562 20.562 -33.136 46.13 -37.734 72.817 c -7.248 42.061 5.328 86.902 37.734 119.311 c 52.97 52.969 139.158 52.968 192.127 0 c 20.563 -20.563 33.137 -46.131 37.735 -72.818 C 397.046 116.975 384.471 72.135 352.063 39.728 z" style="stroke: none; stroke-width: 1; stroke-dasharray: none; stroke-linecap: butt; stroke-linejoin: miter; stroke-miterlimit: 10; fill: #FF0536; fill-rule: nonzero; opacity: 0;" transform=" matrix(1 0 0 1 0 0) " stroke-linecap="round" />
  <path d="M 352.063 39.728 c -52.969 -52.969 -139.157 -52.97 -192.127 0 c -20.562 20.562 -33.136 46.13 -37.734 72.817 c 3.971 8.409 9.422 16.293 16.376 23.247 c 32.424 32.424 84.997 32.425 117.421 0.001 c 32.425 -32.425 84.998 -32.426 117.422 -0.001 c 6.954 6.954 12.406 14.839 16.377 23.248 C 397.046 116.975 384.471 72.135 352.063 39.728 z" style="stroke: none; stroke-width: 1; stroke-dasharray: none; stroke-linecap: butt; stroke-linejoin: miter; stroke-miterlimit: 10; fill: #C10019; fill-rule: nonzero; opacity: 0;" transform=" matrix(1 0 0 1 0 0) " stroke-linecap="round" />
  <path d="M 352.063 39.728 C 325.579 13.243 290.79 0 256 0 v 512 c 8.658 0 15.676 -7.018 15.676 -15.675 v -225.65 c 29.395 -3.386 57.888 -16.322 80.388 -38.821 c 20.563 -20.563 33.137 -46.131 37.735 -72.818 C 397.046 116.975 384.471 72.135 352.063 39.728 z" style="stroke: none; stroke-width: 1; stroke-dasharray: none; stroke-linecap: butt; stroke-linejoin: miter; stroke-miterlimit: 10; fill: rgb(0,0,0); fill-rule: nonzero; opacity: 0;" transform=" matrix(1 0 0 1 0 0) " stroke-linecap="round" />
</g>
<g style="stroke: none; stroke-width: 1; stroke-dasharray: none; stroke-linecap: butt; stroke-linejoin: miter; stroke-miterlimit: 10; fill: none; fill-rule: nonzero; opacity: 1;" transform="translate(382.20000000000005 286.29999999999995) rotate(131.84) scale(2.15 1.8) matrix(1 0 0 -1 0 39.75)" >
  <path d="m 177.028 98.324 c -8.126 2.68 -11.181 -2.402 -9.16 -5.367 c 2.022 -2.967 4.226 0.197 5.869 0.275 c 1.644 0.074 6.416 -1.348 5.06 -7.529 c -1.357 -6.182 -11.082 -4.52 -14.398 0.971 c -2.664 4.412 -3.789 13.586 -1.135 21.787 c 0.807 2.486 1.119 4.516 1.09 6.09 c 0.452 0.096 0.918 0.146 1.393 0.146 c 2.244 0 4.318 -1.102 5.44 -2.891 l 10.412 -16.594 c -1.076 1.319 -2.55 2.448 -4.571 3.112 z" style="stroke: none; stroke-width: 1; stroke-dasharray: none; stroke-linecap: butt; stroke-linejoin: miter; stroke-miterlimit: 10; fill: #295559; fill-rule: nonzero; opacity: 0;" transform=" matrix(1.0000000215973397 0 0 1.0000000215973397 -142.59525307967806 -75.94700164025316) " stroke-linecap="round" />
  <path d="m 184.453 85.72 c 0 0 0.266 3.773 -1.453 7.369 l 5.055 -8.111 c 1.123 -1.789 1.123 -3.799 0 -5.586 c -1.122 -1.789 -3.196 -2.695 -5.441 -2.695 l -6.086 0 c 8.113 1 7.925 9.023 7.925 9.023 z" style="stroke: none; stroke-width: 1; stroke-dasharray: none; stroke-linecap: butt; stroke-linejoin: miter; stroke-miterlimit: 10; fill: #4ea193; fill-rule: nonzero; opacity: 0;" transform=" matrix(1.0000000215973397 0 0 1.0000000215973397 -142.59525307967806 -75.94700164025316) " stroke-linecap="round" />
  <path d="m 170.293 76.585 c 0.279 -0.045 0.543 0.111 0.812 0.111 l -22.228 0 c -2.244 0 -4.318 0.879 -5.441 2.668 c -1.121 1.787 -1.121 3.879 0 5.668 l 12.742 20.254 c 0.021 -1.002 0.087 -1.971 0.205 -3.084 c 0 0.001 -0.553 -23.236 13.91 -25.617 z" style="stroke: none; stroke-width: 1; stroke-dasharray: none; stroke-linecap: butt; stroke-linejoin: miter; stroke-miterlimit: 10; fill: #4ea193; fill-rule: nonzero; opacity: 0;" transform=" matrix(1.0000000215973397 0 0 1.0000000215973397 -142.59525307967806 -75.94700164025316) " stroke-linecap="round" />
  <path d="m 171.104 76.697 l 5.423 0 c -1.504 -1 -3.295 -1 -5.423 0 z" style="stroke: none; stroke-width: 1; stroke-dasharray: none; stroke-linecap: butt; stroke-linejoin: miter; stroke-miterlimit: 10; fill: #c2dc04; fill-rule: nonzero; opacity: 0;" transform=" matrix(1.0000000215973397 0 0 1.0000000215973397 -142.59525307967806 -75.94700164025316) " stroke-linecap="round" />
  <path d="m 181.599 95.212 c 0.573 -0.705 1.032 -1.463 1.401 -2.234 l -1.401 2.234 z" style="stroke: none; stroke-width: 1; stroke-dasharray: none; stroke-linecap: butt; stroke-linejoin: miter; stroke-miterlimit: 10; fill: #c2dc04; fill-rule: nonzero; opacity: 0;" transform=" matrix(1.0000000215973397 0 0 1.0000000215973397 -142.59525307967806 -75.94700164025316) " stroke-linecap="round" />
  <path d="m 184.453 85.72 c 0 0 0.188 -8.023 -7.926 -9.023 l -5.423 0 c -0.269 0 -0.532 -0.156 -0.812 -0.111 c -14.463 2.381 -13.91 25.588 -13.91 25.588 c -0.118 1.113 -0.184 2.111 -0.205 3.113 l 4.127 6.549 c 0.885 1.41 2.363 2.377 4.049 2.729 c 0.029 -1.574 -0.283 -3.609 -1.09 -6.098 c -2.654 -8.199 -1.529 -17.377 1.135 -21.789 c 3.316 -5.49 13.041 -7.154 14.398 -0.973 c 1.356 6.182 -3.416 7.604 -5.06 7.527 c -1.644 -0.077 -3.847 -3.24 -5.869 -0.275 c -2.021 2.965 1.034 8.047 9.16 5.367 c 2.021 -0.664 3.495 -1.793 4.57 -3.111 L 183 93.089 c 1.719 -3.595 1.453 -7.369 1.453 -7.369 z" style="stroke: none; stroke-width: 1; stroke-dasharray: none; stroke-linecap: butt; stroke-linejoin: miter; stroke-miterlimit: 10; fill: #c2dc04; fill-rule: nonzero; opacity: 1;" transform=" matrix(1.0000000215973397 0 0 1.0000000215973397 -142.59525307967806 -75.94700164025316) " stroke-linecap="round" />
</g>
<g style="stroke: none; stroke-width: 1; stroke-dasharray: none; stroke-linecap: butt; stroke-linejoin: miter; stroke-miterlimit: 10; fill: none; fill-rule: nonzero; opacity: 1;" transform="translate(345.6600000000001 160.76999999999998) scale(0.04 0.03)" >
  <path d="M 255 0 C 114.75 0 0 114.75 0 255 s 114.75 255 255 255 s 255 -114.75 255 -255 S 395.25 0 255 0 z" style="stroke: none; stroke-width: 1; stroke-dasharray: none; stroke-linecap: butt; stroke-linejoin: miter; stroke-miterlimit: 10; fill: #c2dc00; fill-rule: nonzero; opacity: 1;" transform=" matrix(1 0 0 1 0 0) " stroke-linecap="round" />
</g>
<g style="stroke: none; stroke-width: 1; stroke-dasharray: none; stroke-linecap: butt; stroke-linejoin: miter; stroke-miterlimit: 10; fill: none; fill-rule: nonzero; opacity: 1;" transform="translate(27.49000000000001 10) scale(0.31 0.41)" >
  <path d="M 256 512 c -8.657 0 -15.675 -7.018 -15.675 -15.675 V 255.968 c 0 -8.657 7.018 -15.675 15.675 -15.674 c 8.658 -0.001 15.676 7.017 15.676 15.675 v 240.356 C 271.676 504.982 264.658 512 256 512 z" style="stroke: none; stroke-width: 1; stroke-dasharray: none; stroke-linecap: butt; stroke-linejoin: miter; stroke-miterlimit: 10; fill: #c2dc00; fill-rule: nonzero; opacity: 1;" transform=" matrix(1 0 0 1 0 0) " stroke-linecap="round" />
  <path d="M 352.063 39.728 c -52.969 -52.969 -139.157 -52.97 -192.127 0 c -20.562 20.562 -33.136 46.13 -37.734 72.817 c -7.248 42.061 5.328 86.902 37.734 119.311 c 52.97 52.969 139.158 52.968 192.127 0 c 20.563 -20.563 33.137 -46.131 37.735 -72.818 C 397.046 116.975 384.471 72.135 352.063 39.728 z" style="stroke: none; stroke-width: 1; stroke-dasharray: none; stroke-linecap: butt; stroke-linejoin: miter; stroke-miterlimit: 10; fill: #FF0536; fill-rule: nonzero; opacity: 0;" transform=" matrix(1 0 0 1 0 0) " stroke-linecap="round" />
  <path d="M 352.063 39.728 c -52.969 -52.969 -139.157 -52.97 -192.127 0 c -20.562 20.562 -33.136 46.13 -37.734 72.817 c 3.971 8.409 9.422 16.293 16.376 23.247 c 32.424 32.424 84.997 32.425 117.421 0.001 c 32.425 -32.425 84.998 -32.426 117.422 -0.001 c 6.954 6.954 12.406 14.839 16.377 23.248 C 397.046 116.975 384.471 72.135 352.063 39.728 z" style="stroke: none; stroke-width: 1; stroke-dasharray: none; stroke-linecap: butt; stroke-linejoin: miter; stroke-miterlimit: 10; fill: #C10019; fill-rule: nonzero; opacity: 0;" transform=" matrix(1 0 0 1 0 0) " stroke-linecap="round" />
  <path d="M 352.063 39.728 C 325.579 13.243 290.79 0 256 0 v 512 c 8.658 0 15.676 -7.018 15.676 -15.675 v -225.65 c 29.395 -3.386 57.888 -16.322 80.388 -38.821 c 20.563 -20.563 33.137 -46.131 37.735 -72.818 C 397.046 116.975 384.471 72.135 352.063 39.728 z" style="stroke: none; stroke-width: 1; stroke-dasharray: none; stroke-linecap: butt; stroke-linejoin: miter; stroke-miterlimit: 10; fill: rgb(0,0,0); fill-rule: nonzero; opacity: 0;" transform=" matrix(1 0 0 1 0 0) " stroke-linecap="round" />
</g>
<g style="stroke: none; stroke-width: 1; stroke-dasharray: none; stroke-linecap: butt; stroke-linejoin: miter; stroke-miterlimit: 10; fill: none; fill-rule: nonzero; opacity: 1;" transform="translate(51.960000000000036 222.04999999999995) rotate(287.25) scale(1.4 1.04) matrix(-1 0 0 1 28.76 0) " >
  <path d="m 164.879 86.792 c 0 -5.982 -4.159 -9.322 -9.23 -11.18 c -3.675 2.602 -10.093 8.967 -10.795 22.031 c -0.046 0.84 -0.04 1.645 -0.012 2.432 c 8.106 -0.575 20.037 -3.144 20.037 -13.283 z" style="stroke: none; stroke-width: 1; stroke-dasharray: none; stroke-linecap: butt; stroke-linejoin: miter; stroke-miterlimit: 10; fill: #ffc440; fill-rule: nonzero; opacity: 0;" transform=" matrix(1 0 0 1 -137.12149 -73.357909) " stroke-linecap="round" />
  <path d="m 153.967 75.085 c -7.65 -2.289 -16.554 -1.643 -16.554 -1.643 l 0 19.475 c 2 -11.523 11.096 -16.107 16.554 -17.832 z" style="stroke: none; stroke-width: 1; stroke-dasharray: none; stroke-linecap: butt; stroke-linejoin: miter; stroke-miterlimit: 10; fill: #f5574b; fill-rule: nonzero; opacity: 0;" transform=" matrix(1 0 0 1 -137.12149 -73.357909) " stroke-linecap="round" />
  <path d="m 144.842 100.076 c -0.028 -0.787 -0.034 -1.592 0.012 -2.432 c 0.702 -13.064 7.12 -19.43 10.795 -22.031 c 1.507 -1.066 2.556 -1.504 2.556 -1.504 c 0 0 -1.705 0.207 -4.14 0.977 c -5.458 1.725 -14.591 6.309 -16.554 17.832 c -0.336 1.979 -0.477 4.148 -0.334 6.559 c 1.336 22.695 24.031 21.693 24.031 21.693 c 0 0 -15.785 -4.661 -16.366 -21.094 z" style="stroke: none; stroke-width: 1; stroke-dasharray: none; stroke-linecap: butt; stroke-linejoin: miter; stroke-miterlimit: 10; fill: #c2dc00; fill-rule: nonzero; opacity: 1;" transform=" matrix(1 0 0 1 -137.12149 -73.357909) " stroke-linecap="round" />
</g>
<g style="stroke: none; stroke-width: 1; stroke-dasharray: none; stroke-linecap: butt; stroke-linejoin: miter; stroke-miterlimit: 10; fill: none; fill-rule: nonzero; opacity: 1;" transform="translate(180.49999999999997 136.49999999999997) rotate(359.08) scale(0.33 0.43)" >
  <path d="M 256 512 c -8.657 0 -15.675 -7.018 -15.675 -15.675 V 255.968 c 0 -8.657 7.018 -15.675 15.675 -15.674 c 8.658 -0.001 15.676 7.017 15.676 15.675 v 240.356 C 271.676 504.982 264.658 512 256 512 z" style="stroke: none; stroke-width: 1; stroke-dasharray: none; stroke-linecap: butt; stroke-linejoin: miter; stroke-miterlimit: 10; fill: #c2dc00; fill-rule: nonzero; opacity: 1;" transform=" matrix(1 0 0 1 0 0) " stroke-linecap="round" />
  <path d="M 352.063 39.728 c -52.969 -52.969 -139.157 -52.97 -192.127 0 c -20.562 20.562 -33.136 46.13 -37.734 72.817 c -7.248 42.061 5.328 86.902 37.734 119.311 c 52.97 52.969 139.158 52.968 192.127 0 c 20.563 -20.563 33.137 -46.131 37.735 -72.818 C 397.046 116.975 384.471 72.135 352.063 39.728 z" style="stroke: none; stroke-width: 1; stroke-dasharray: none; stroke-linecap: butt; stroke-linejoin: miter; stroke-miterlimit: 10; fill: #FF0536; fill-rule: nonzero; opacity: 0;" transform=" matrix(1 0 0 1 0 0) " stroke-linecap="round" />
  <path d="M 352.063 39.728 c -52.969 -52.969 -139.157 -52.97 -192.127 0 c -20.562 20.562 -33.136 46.13 -37.734 72.817 c 3.971 8.409 9.422 16.293 16.376 23.247 c 32.424 32.424 84.997 32.425 117.421 0.001 c 32.425 -32.425 84.998 -32.426 117.422 -0.001 c 6.954 6.954 12.406 14.839 16.377 23.248 C 397.046 116.975 384.471 72.135 352.063 39.728 z" style="stroke: none; stroke-width: 1; stroke-dasharray: none; stroke-linecap: butt; stroke-linejoin: miter; stroke-miterlimit: 10; fill: #C10019; fill-rule: nonzero; opacity: 0;" transform=" matrix(1 0 0 1 0 0) " stroke-linecap="round" />
  <path d="M 352.063 39.728 C 325.579 13.243 290.79 0 256 0 v 512 c 8.658 0 15.676 -7.018 15.676 -15.675 v -225.65 c 29.395 -3.386 57.888 -16.322 80.388 -38.821 c 20.563 -20.563 33.137 -46.131 37.735 -72.818 C 397.046 116.975 384.471 72.135 352.063 39.728 z" style="stroke: none; stroke-width: 1; stroke-dasharray: none; stroke-linecap: butt; stroke-linejoin: miter; stroke-miterlimit: 10; fill: rgb(0,0,0); fill-rule: nonzero; opacity: 0;" transform=" matrix(1 0 0 1 0 0) " stroke-linecap="round" />
</g>
<g style="stroke: none; stroke-width: 1; stroke-dasharray: none; stroke-linecap: butt; stroke-linejoin: miter; stroke-miterlimit: 10; fill: none; fill-rule: nonzero; opacity: 1;" transform="translate(158.39999999999998 225.16999999999996) rotate(272.47) scale(1.52 1.1) matrix(-1 0 0 1 28.76 0) " >
  <path d="m 164.879 86.792 c 0 -5.982 -4.159 -9.322 -9.23 -11.18 c -3.675 2.602 -10.093 8.967 -10.795 22.031 c -0.046 0.84 -0.04 1.645 -0.012 2.432 c 8.106 -0.575 20.037 -3.144 20.037 -13.283 z" style="stroke: none; stroke-width: 1; stroke-dasharray: none; stroke-linecap: butt; stroke-linejoin: miter; stroke-miterlimit: 10; fill: #ffc440; fill-rule: nonzero; opacity: 0;" transform=" matrix(1 0 0 1 -137.12149 -73.357909) " stroke-linecap="round" />
  <path d="m 153.967 75.085 c -7.65 -2.289 -16.554 -1.643 -16.554 -1.643 l 0 19.475 c 2 -11.523 11.096 -16.107 16.554 -17.832 z" style="stroke: none; stroke-width: 1; stroke-dasharray: none; stroke-linecap: butt; stroke-linejoin: miter; stroke-miterlimit: 10; fill: #f5574b; fill-rule: nonzero; opacity: 0;" transform=" matrix(1 0 0 1 -137.12149 -73.357909) " stroke-linecap="round" />
  <path d="m 144.842 100.076 c -0.028 -0.787 -0.034 -1.592 0.012 -2.432 c 0.702 -13.064 7.12 -19.43 10.795 -22.031 c 1.507 -1.066 2.556 -1.504 2.556 -1.504 c 0 0 -1.705 0.207 -4.14 0.977 c -5.458 1.725 -14.591 6.309 -16.554 17.832 c -0.336 1.979 -0.477 4.148 -0.334 6.559 c 1.336 22.695 24.031 21.693 24.031 21.693 c 0 0 -15.785 -4.661 -16.366 -21.094 z" style="stroke: none; stroke-width: 1; stroke-dasharray: none; stroke-linecap: butt; stroke-linejoin: miter; stroke-miterlimit: 10; fill: #c2dc00; fill-rule: nonzero; opacity: 1;" transform=" matrix(1 0 0 1 -137.12149 -73.357909) " stroke-linecap="round" />
</g>
<g style="stroke: none; stroke-width: 1; stroke-dasharray: none; stroke-linecap: butt; stroke-linejoin: miter; stroke-miterlimit: 10; fill: none; fill-rule: nonzero; opacity: 1;" transform="translate(137.27999999999994 23.179999999999993) rotate(1.23) scale(0.31 0.4)" >
  <path d="M 256 512 c -8.657 0 -15.675 -7.018 -15.675 -15.675 V 255.968 c 0 -8.657 7.018 -15.675 15.675 -15.674 c 8.658 -0.001 15.676 7.017 15.676 15.675 v 240.356 C 271.676 504.982 264.658 512 256 512 z" style="stroke: none; stroke-width: 1; stroke-dasharray: none; stroke-linecap: butt; stroke-linejoin: miter; stroke-miterlimit: 10; fill: #ff0007; fill-rule: nonzero; opacity: 1;" transform=" matrix(1 0 0 1 0 0) " stroke-linecap="round" />
  <path d="M 352.063 39.728 c -52.969 -52.969 -139.157 -52.97 -192.127 0 c -20.562 20.562 -33.136 46.13 -37.734 72.817 c -7.248 42.061 5.328 86.902 37.734 119.311 c 52.97 52.969 139.158 52.968 192.127 0 c 20.563 -20.563 33.137 -46.131 37.735 -72.818 C 397.046 116.975 384.471 72.135 352.063 39.728 z" style="stroke: none; stroke-width: 1; stroke-dasharray: none; stroke-linecap: butt; stroke-linejoin: miter; stroke-miterlimit: 10; fill: #FF0536; fill-rule: nonzero; opacity: 0;" transform=" matrix(1 0 0 1 0 0) " stroke-linecap="round" />
  <path d="M 352.063 39.728 c -52.969 -52.969 -139.157 -52.97 -192.127 0 c -20.562 20.562 -33.136 46.13 -37.734 72.817 c 3.971 8.409 9.422 16.293 16.376 23.247 c 32.424 32.424 84.997 32.425 117.421 0.001 c 32.425 -32.425 84.998 -32.426 117.422 -0.001 c 6.954 6.954 12.406 14.839 16.377 23.248 C 397.046 116.975 384.471 72.135 352.063 39.728 z" style="stroke: none; stroke-width: 1; stroke-dasharray: none; stroke-linecap: butt; stroke-linejoin: miter; stroke-miterlimit: 10; fill: #C10019; fill-rule: nonzero; opacity: 0;" transform=" matrix(1 0 0 1 0 0) " stroke-linecap="round" />
  <path d="M 352.063 39.728 C 325.579 13.243 290.79 0 256 0 v 512 c 8.658 0 15.676 -7.018 15.676 -15.675 v -225.65 c 29.395 -3.386 57.888 -16.322 80.388 -38.821 c 20.563 -20.563 33.137 -46.131 37.735 -72.818 C 397.046 116.975 384.471 72.135 352.063 39.728 z" style="stroke: none; stroke-width: 1; stroke-dasharray: none; stroke-linecap: butt; stroke-linejoin: miter; stroke-miterlimit: 10; fill: rgb(0,0,0); fill-rule: nonzero; opacity: 0;" transform=" matrix(1 0 0 1 0 0) " stroke-linecap="round" />
</g>
<g style="stroke: none; stroke-width: 1; stroke-dasharray: none; stroke-linecap: butt; stroke-linejoin: miter; stroke-miterlimit: 10; fill: none; fill-rule: nonzero; opacity: 1;" transform="translate(163.27999999999994 23.179999999999993) rotate(1.23) scale(0.31 0.4)" >
  <path d="M 256 512 c -8.657 0 -15.675 -7.018 -15.675 -15.675 V 255.968 c 0 -8.657 7.018 -15.675 15.675 -15.674 c 8.658 -0.001 15.676 7.017 15.676 15.675 v 240.356 C 271.676 504.982 264.658 512 256 512 z" style="stroke: none; stroke-width: 1; stroke-dasharray: none; stroke-linecap: butt; stroke-linejoin: miter; stroke-miterlimit: 10; fill: #ff0000; fill-rule: nonzero; opacity: 1;" transform=" matrix(1 0 0 1 0 0) " stroke-linecap="round" />
  <path d="M 352.063 39.728 c -52.969 -52.969 -139.157 -52.97 -192.127 0 c -20.562 20.562 -33.136 46.13 -37.734 72.817 c -7.248 42.061 5.328 86.902 37.734 119.311 c 52.97 52.969 139.158 52.968 192.127 0 c 20.563 -20.563 33.137 -46.131 37.735 -72.818 C 397.046 116.975 384.471 72.135 352.063 39.728 z" style="stroke: none; stroke-width: 1; stroke-dasharray: none; stroke-linecap: butt; stroke-linejoin: miter; stroke-miterlimit: 10; fill: #FF0536; fill-rule: nonzero; opacity: 0;" transform=" matrix(1 0 0 1 0 0) " stroke-linecap="round" />
  <path d="M 352.063 39.728 c -52.969 -52.969 -139.157 -52.97 -192.127 0 c -20.562 20.562 -33.136 46.13 -37.734 72.817 c 3.971 8.409 9.422 16.293 16.376 23.247 c 32.424 32.424 84.997 32.425 117.421 0.001 c 32.425 -32.425 84.998 -32.426 117.422 -0.001 c 6.954 6.954 12.406 14.839 16.377 23.248 C 397.046 116.975 384.471 72.135 352.063 39.728 z" style="stroke: none; stroke-width: 1; stroke-dasharray: none; stroke-linecap: butt; stroke-linejoin: miter; stroke-miterlimit: 10; fill: #C10019; fill-rule: nonzero; opacity: 0;" transform=" matrix(1 0 0 1 0 0) " stroke-linecap="round" />
  <path d="M 352.063 39.728 C 325.579 13.243 290.79 0 256 0 v 512 c 8.658 0 15.676 -7.018 15.676 -15.675 v -225.65 c 29.395 -3.386 57.888 -16.322 80.388 -38.821 c 20.563 -20.563 33.137 -46.131 37.735 -72.818 C 397.046 116.975 384.471 72.135 352.063 39.728 z" style="stroke: none; stroke-width: 1; stroke-dasharray: none; stroke-linecap: butt; stroke-linejoin: miter; stroke-miterlimit: 10; fill: rgb(0,0,0); fill-rule: nonzero; opacity: 0;" transform=" matrix(1 0 0 1 0 0) " stroke-linecap="round" />
</g>
<g style="stroke: none; stroke-width: 1; stroke-dasharray: none; stroke-linecap: butt; stroke-linejoin: miter; stroke-miterlimit: 10; fill: none; fill-rule: nonzero; opacity: 1;" transform="translate(259.44000000000005 120.82000000000002) rotate(358.61) scale(1.52 2.15) matrix(-1 0 0 1 28.76 0) " >
  <path d="m 164.879 86.792 c 0 -5.982 -4.159 -9.322 -9.23 -11.18 c -3.675 2.602 -10.093 8.967 -10.795 22.031 c -0.046 0.84 -0.04 1.645 -0.012 2.432 c 8.106 -0.575 20.037 -3.144 20.037 -13.283 z" style="stroke: none; stroke-width: 1; stroke-dasharray: none; stroke-linecap: butt; stroke-linejoin: miter; stroke-miterlimit: 10; fill: #ffc440; fill-rule: nonzero; opacity: 0;" transform=" matrix(1 0 0 1 -137.12149 -73.357909) " stroke-linecap="round" />
  <path d="m 153.967 75.085 c -7.65 -2.289 -16.554 -1.643 -16.554 -1.643 l 0 19.475 c 2 -11.523 11.096 -16.107 16.554 -17.832 z" style="stroke: none; stroke-width: 1; stroke-dasharray: none; stroke-linecap: butt; stroke-linejoin: miter; stroke-miterlimit: 10; fill: #f5574b; fill-rule: nonzero; opacity: 0;" transform=" matrix(1 0 0 1 -137.12149 -73.357909) " stroke-linecap="round" />
  <path d="m 144.842 100.076 c -0.028 -0.787 -0.034 -1.592 0.012 -2.432 c 0.702 -13.064 7.12 -19.43 10.795 -22.031 c 1.507 -1.066 2.556 -1.504 2.556 -1.504 c 0 0 -1.705 0.207 -4.14 0.977 c -5.458 1.725 -14.591 6.309 -16.554 17.832 c -0.336 1.979 -0.477 4.148 -0.334 6.559 c 1.336 22.695 24.031 21.693 24.031 21.693 c 0 0 -15.785 -4.661 -16.366 -21.094 z" style="stroke: none; stroke-width: 1; stroke-dasharray: none; stroke-linecap: butt; stroke-linejoin: miter; stroke-miterlimit: 10; fill: #c2dc00; fill-rule: nonzero; opacity: 1;" transform=" matrix(1 0 0 1 -137.12149 -73.357909) " stroke-linecap="round" />
</g>
<g style="stroke: none; stroke-width: 1; stroke-dasharray: none; stroke-linecap: butt; stroke-linejoin: miter; stroke-miterlimit: 10; fill: none; fill-rule: nonzero; opacity: 1;" transform="translate(282.72 231.81) rotate(265.61) scale(1.07 1.15) matrix(-1 0 0 1 28.76 0) " >
  <path d="m 164.879 86.792 c 0 -5.982 -4.159 -9.322 -9.23 -11.18 c -3.675 2.602 -10.093 8.967 -10.795 22.031 c -0.046 0.84 -0.04 1.645 -0.012 2.432 c 8.106 -0.575 20.037 -3.144 20.037 -13.283 z" style="stroke: none; stroke-width: 1; stroke-dasharray: none; stroke-linecap: butt; stroke-linejoin: miter; stroke-miterlimit: 10; fill: #ffc440; fill-rule: nonzero; opacity: 0;" transform=" matrix(1 0 0 1 -137.12149 -73.357909) " stroke-linecap="round" />
  <path d="m 153.967 75.085 c -7.65 -2.289 -16.554 -1.643 -16.554 -1.643 l 0 19.475 c 2 -11.523 11.096 -16.107 16.554 -17.832 z" style="stroke: none; stroke-width: 1; stroke-dasharray: none; stroke-linecap: butt; stroke-linejoin: miter; stroke-miterlimit: 10; fill: #f5574b; fill-rule: nonzero; opacity: 0;" transform=" matrix(1 0 0 1 -137.12149 -73.357909) " stroke-linecap="round" />
  <path d="m 144.842 100.076 c -0.028 -0.787 -0.034 -1.592 0.012 -2.432 c 0.702 -13.064 7.12 -19.43 10.795 -22.031 c 1.507 -1.066 2.556 -1.504 2.556 -1.504 c 0 0 -1.705 0.207 -4.14 0.977 c -5.458 1.725 -14.591 6.309 -16.554 17.832 c -0.336 1.979 -0.477 4.148 -0.334 6.559 c 1.336 22.695 24.031 21.693 24.031 21.693 c 0 0 -15.785 -4.661 -16.366 -21.094 z" style="stroke: none; stroke-width: 1; stroke-dasharray: none; stroke-linecap: butt; stroke-linejoin: miter; stroke-miterlimit: 10; fill: #c2dc00; fill-rule: nonzero; opacity: 1;" transform=" matrix(1 0 0 1 -137.12149 -73.357909) " stroke-linecap="round" />
</g>
<g style="stroke: none; stroke-width: 1; stroke-dasharray: none; stroke-linecap: butt; stroke-linejoin: miter; stroke-miterlimit: 10; fill: none; fill-rule: nonzero; opacity: 1;" transform="translate(253.31000000000006 37.06999999999998) rotate(358.41) scale(0.31 0.37)" >
  <path d="M 256 512 c -8.657 0 -15.675 -7.018 -15.675 -15.675 V 255.968 c 0 -8.657 7.018 -15.675 15.675 -15.674 c 8.658 -0.001 15.676 7.017 15.676 15.675 v 240.356 C 271.676 504.982 264.658 512 256 512 z" style="stroke: none; stroke-width: 1; stroke-dasharray: none; stroke-linecap: butt; stroke-linejoin: miter; stroke-miterlimit: 10; fill: #c2dc00; fill-rule: nonzero; opacity: 1;" transform=" matrix(1 0 0 1 0 0) " stroke-linecap="round" />
  <path d="M 352.063 39.728 c -52.969 -52.969 -139.157 -52.97 -192.127 0 c -20.562 20.562 -33.136 46.13 -37.734 72.817 c -7.248 42.061 5.328 86.902 37.734 119.311 c 52.97 52.969 139.158 52.968 192.127 0 c 20.563 -20.563 33.137 -46.131 37.735 -72.818 C 397.046 116.975 384.471 72.135 352.063 39.728 z" style="stroke: none; stroke-width: 1; stroke-dasharray: none; stroke-linecap: butt; stroke-linejoin: miter; stroke-miterlimit: 10; fill: #FF0536; fill-rule: nonzero; opacity: 0;" transform=" matrix(1 0 0 1 0 0) " stroke-linecap="round" />
  <path d="M 352.063 39.728 c -52.969 -52.969 -139.157 -52.97 -192.127 0 c -20.562 20.562 -33.136 46.13 -37.734 72.817 c 3.971 8.409 9.422 16.293 16.376 23.247 c 32.424 32.424 84.997 32.425 117.421 0.001 c 32.425 -32.425 84.998 -32.426 117.422 -0.001 c 6.954 6.954 12.406 14.839 16.377 23.248 C 397.046 116.975 384.471 72.135 352.063 39.728 z" style="stroke: none; stroke-width: 1; stroke-dasharray: none; stroke-linecap: butt; stroke-linejoin: miter; stroke-miterlimit: 10; fill: #C10019; fill-rule: nonzero; opacity: 0;" transform=" matrix(1 0 0 1 0 0) " stroke-linecap="round" />
  <path d="M 352.063 39.728 C 325.579 13.243 290.79 0 256 0 v 512 c 8.658 0 15.676 -7.018 15.676 -15.675 v -225.65 c 29.395 -3.386 57.888 -16.322 80.388 -38.821 c 20.563 -20.563 33.137 -46.131 37.735 -72.818 C 397.046 116.975 384.471 72.135 352.063 39.728 z" style="stroke: none; stroke-width: 1; stroke-dasharray: none; stroke-linecap: butt; stroke-linejoin: miter; stroke-miterlimit: 10; fill: rgb(0,0,0); fill-rule: nonzero; opacity: 0;" transform=" matrix(1 0 0 1 0 0) " stroke-linecap="round" />
</g>
<g style="stroke: none; stroke-width: 1; stroke-dasharray: none; stroke-linecap: butt; stroke-linejoin: miter; stroke-miterlimit: 10; fill: none; fill-rule: nonzero; opacity: 1;" transform="translate(330.4100000000001 152.75) rotate(89.28) scale(0.31 0.25)" >
  <path d="M 256 512 c -8.657 0 -15.675 -7.018 -15.675 -15.675 V 255.968 c 0 -8.657 7.018 -15.675 15.675 -15.674 c 8.658 -0.001 15.676 7.017 15.676 15.675 v 240.356 C 271.676 504.982 264.658 512 256 512 z" style="stroke: none; stroke-width: 1; stroke-dasharray: none; stroke-linecap: butt; stroke-linejoin: miter; stroke-miterlimit: 10; fill: #ff0000; fill-rule: nonzero; opacity: 1;" transform=" matrix(1 0 0 1 0 0) " stroke-linecap="round" />
  <path d="M 352.063 39.728 c -52.969 -52.969 -139.157 -52.97 -192.127 0 c -20.562 20.562 -33.136 46.13 -37.734 72.817 c -7.248 42.061 5.328 86.902 37.734 119.311 c 52.97 52.969 139.158 52.968 192.127 0 c 20.563 -20.563 33.137 -46.131 37.735 -72.818 C 397.046 116.975 384.471 72.135 352.063 39.728 z" style="stroke: none; stroke-width: 1; stroke-dasharray: none; stroke-linecap: butt; stroke-linejoin: miter; stroke-miterlimit: 10; fill: #FF0536; fill-rule: nonzero; opacity: 0;" transform=" matrix(1 0 0 1 0 0) " stroke-linecap="round" />
  <path d="M 352.063 39.728 c -52.969 -52.969 -139.157 -52.97 -192.127 0 c -20.562 20.562 -33.136 46.13 -37.734 72.817 c 3.971 8.409 9.422 16.293 16.376 23.247 c 32.424 32.424 84.997 32.425 117.421 0.001 c 32.425 -32.425 84.998 -32.426 117.422 -0.001 c 6.954 6.954 12.406 14.839 16.377 23.248 C 397.046 116.975 384.471 72.135 352.063 39.728 z" style="stroke: none; stroke-width: 1; stroke-dasharray: none; stroke-linecap: butt; stroke-linejoin: miter; stroke-miterlimit: 10; fill: #C10019; fill-rule: nonzero; opacity: 0;" transform=" matrix(1 0 0 1 0 0) " stroke-linecap="round" />
  <path d="M 352.063 39.728 C 325.579 13.243 290.79 0 256 0 v 512 c 8.658 0 15.676 -7.018 15.676 -15.675 v -225.65 c 29.395 -3.386 57.888 -16.322 80.388 -38.821 c 20.563 -20.563 33.137 -46.131 37.735 -72.818 C 397.046 116.975 384.471 72.135 352.063 39.728 z" style="stroke: none; stroke-width: 1; stroke-dasharray: none; stroke-linecap: butt; stroke-linejoin: miter; stroke-miterlimit: 10; fill: rgb(0,0,0); fill-rule: nonzero; opacity: 0;" transform=" matrix(1 0 0 1 0 0) " stroke-linecap="round" />
</g>
<g style="stroke: none; stroke-width: 1; stroke-dasharray: none; stroke-linecap: butt; stroke-linejoin: miter; stroke-miterlimit: 10; fill: none; fill-rule: nonzero; opacity: 1;" transform="translate(191.82000000000005 356.15999999999997) rotate(271.17) scale(1.4 1.04) matrix(-1 0 0 1 28.76 0) " >
  <path d="m 164.879 86.792 c 0 -5.982 -4.159 -9.322 -9.23 -11.18 c -3.675 2.602 -10.093 8.967 -10.795 22.031 c -0.046 0.84 -0.04 1.645 -0.012 2.432 c 8.106 -0.575 20.037 -3.144 20.037 -13.283 z" style="stroke: none; stroke-width: 1; stroke-dasharray: none; stroke-linecap: butt; stroke-linejoin: miter; stroke-miterlimit: 10; fill: #ffc440; fill-rule: nonzero; opacity: 0;" transform=" matrix(1 0 0 1 -137.12149 -73.357909) " stroke-linecap="round" />
  <path d="m 153.967 75.085 c -7.65 -2.289 -16.554 -1.643 -16.554 -1.643 l 0 19.475 c 2 -11.523 11.096 -16.107 16.554 -17.832 z" style="stroke: none; stroke-width: 1; stroke-dasharray: none; stroke-linecap: butt; stroke-linejoin: miter; stroke-miterlimit: 10; fill: #f5574b; fill-rule: nonzero; opacity: 0;" transform=" matrix(1 0 0 1 -137.12149 -73.357909) " stroke-linecap="round" />
  <path d="m 144.842 100.076 c -0.028 -0.787 -0.034 -1.592 0.012 -2.432 c 0.702 -13.064 7.12 -19.43 10.795 -22.031 c 1.507 -1.066 2.556 -1.504 2.556 -1.504 c 0 0 -1.705 0.207 -4.14 0.977 c -5.458 1.725 -14.591 6.309 -16.554 17.832 c -0.336 1.979 -0.477 4.148 -0.334 6.559 c 1.336 22.695 24.031 21.693 24.031 21.693 c 0 0 -15.785 -4.661 -16.366 -21.094 z" style="stroke: none; stroke-width: 1; stroke-dasharray: none; stroke-linecap: butt; stroke-linejoin: miter; stroke-miterlimit: 10; fill: #c2dc00; fill-rule: nonzero; opacity: 1;" transform=" matrix(1 0 0 1 -137.12149 -73.357909) " stroke-linecap="round" />
</g>
<g style="stroke: none; stroke-width: 1; stroke-dasharray: none; stroke-linecap: butt; stroke-linejoin: miter; stroke-miterlimit: 10; fill: none; fill-rule: nonzero; opacity: 1;" transform="translate(132.01000000000002 137.57999999999998) rotate(359.49) scale(0.41 0.43)" >
  <path d="M 256 512 c -8.657 0 -15.675 -7.018 -15.675 -15.675 V 255.968 c 0 -8.657 7.018 -15.675 15.675 -15.674 c 8.658 -0.001 15.676 7.017 15.676 15.675 v 240.356 C 271.676 504.982 264.658 512 256 512 z" style="stroke: none; stroke-width: 1; stroke-dasharray: none; stroke-linecap: butt; stroke-linejoin: miter; stroke-miterlimit: 10; fill: #ff0000; fill-rule: nonzero; opacity: 1;" transform=" matrix(1 0 0 1 0 0) " stroke-linecap="round" />
  <path d="M 352.063 39.728 c -52.969 -52.969 -139.157 -52.97 -192.127 0 c -20.562 20.562 -33.136 46.13 -37.734 72.817 c -7.248 42.061 5.328 86.902 37.734 119.311 c 52.97 52.969 139.158 52.968 192.127 0 c 20.563 -20.563 33.137 -46.131 37.735 -72.818 C 397.046 116.975 384.471 72.135 352.063 39.728 z" style="stroke: none; stroke-width: 1; stroke-dasharray: none; stroke-linecap: butt; stroke-linejoin: miter; stroke-miterlimit: 10; fill: #FF0536; fill-rule: nonzero; opacity: 0;" transform=" matrix(1 0 0 1 0 0) " stroke-linecap="round" />
  <path d="M 352.063 39.728 c -52.969 -52.969 -139.157 -52.97 -192.127 0 c -20.562 20.562 -33.136 46.13 -37.734 72.817 c 3.971 8.409 9.422 16.293 16.376 23.247 c 32.424 32.424 84.997 32.425 117.421 0.001 c 32.425 -32.425 84.998 -32.426 117.422 -0.001 c 6.954 6.954 12.406 14.839 16.377 23.248 C 397.046 116.975 384.471 72.135 352.063 39.728 z" style="stroke: none; stroke-width: 1; stroke-dasharray: none; stroke-linecap: butt; stroke-linejoin: miter; stroke-miterlimit: 10; fill: #C10019; fill-rule: nonzero; opacity: 0;" transform=" matrix(1 0 0 1 0 0) " stroke-linecap="round" />
  <path d="M 352.063 39.728 C 325.579 13.243 290.79 0 256 0 v 512 c 8.658 0 15.676 -7.018 15.676 -15.675 v -225.65 c 29.395 -3.386 57.888 -16.322 80.388 -38.821 c 20.563 -20.563 33.137 -46.131 37.735 -72.818 C 397.046 116.975 384.471 72.135 352.063 39.728 z" style="stroke: none; stroke-width: 1; stroke-dasharray: none; stroke-linecap: butt; stroke-linejoin: miter; stroke-miterlimit: 10; fill: rgb(0,0,0); fill-rule: nonzero; opacity: 0;" transform=" matrix(1 0 0 1 0 0) " stroke-linecap="round" />
</g>
<g style="stroke: none; stroke-width: 1; stroke-dasharray: none; stroke-linecap: butt; stroke-linejoin: miter; stroke-miterlimit: 10; fill: none; fill-rule: nonzero; opacity: 1;" transform="translate(257.38 128.40999999999997) rotate(358.41) scale(0.33 0.44)" >
  <path d="M 256 512 c -8.657 0 -15.675 -7.018 -15.675 -15.675 V 255.968 c 0 -8.657 7.018 -15.675 15.675 -15.674 c 8.658 -0.001 15.676 7.017 15.676 15.675 v 240.356 C 271.676 504.982 264.658 512 256 512 z" style="stroke: none; stroke-width: 1; stroke-dasharray: none; stroke-linecap: butt; stroke-linejoin: miter; stroke-miterlimit: 10; fill: #c2dc00; fill-rule: nonzero; opacity: 1;" transform=" matrix(1 0 0 1 0 0) " stroke-linecap="round" />
  <path d="M 352.063 39.728 c -52.969 -52.969 -139.157 -52.97 -192.127 0 c -20.562 20.562 -33.136 46.13 -37.734 72.817 c -7.248 42.061 5.328 86.902 37.734 119.311 c 52.97 52.969 139.158 52.968 192.127 0 c 20.563 -20.563 33.137 -46.131 37.735 -72.818 C 397.046 116.975 384.471 72.135 352.063 39.728 z" style="stroke: none; stroke-width: 1; stroke-dasharray: none; stroke-linecap: butt; stroke-linejoin: miter; stroke-miterlimit: 10; fill: #FF0536; fill-rule: nonzero; opacity: 0;" transform=" matrix(1 0 0 1 0 0) " stroke-linecap="round" />
  <path d="M 352.063 39.728 c -52.969 -52.969 -139.157 -52.97 -192.127 0 c -20.562 20.562 -33.136 46.13 -37.734 72.817 c 3.971 8.409 9.422 16.293 16.376 23.247 c 32.424 32.424 84.997 32.425 117.421 0.001 c 32.425 -32.425 84.998 -32.426 117.422 -0.001 c 6.954 6.954 12.406 14.839 16.377 23.248 C 397.046 116.975 384.471 72.135 352.063 39.728 z" style="stroke: none; stroke-width: 1; stroke-dasharray: none; stroke-linecap: butt; stroke-linejoin: miter; stroke-miterlimit: 10; fill: #C10019; fill-rule: nonzero; opacity: 0;" transform=" matrix(1 0 0 1 0 0) " stroke-linecap="round" />
  <path d="M 352.063 39.728 C 325.579 13.243 290.79 0 256 0 v 512 c 8.658 0 15.676 -7.018 15.676 -15.675 v -225.65 c 29.395 -3.386 57.888 -16.322 80.388 -38.821 c 20.563 -20.563 33.137 -46.131 37.735 -72.818 C 397.046 116.975 384.471 72.135 352.063 39.728 z" style="stroke: none; stroke-width: 1; stroke-dasharray: none; stroke-linecap: butt; stroke-linejoin: miter; stroke-miterlimit: 10; fill: rgb(0,0,0); fill-rule: nonzero; opacity: 0;" transform=" matrix(1 0 0 1 0 0) " stroke-linecap="round" />
</g>
<g style="stroke: none; stroke-width: 1; stroke-dasharray: none; stroke-linecap: butt; stroke-linejoin: miter; stroke-miterlimit: 10; fill: none; fill-rule: nonzero; opacity: 1;" transform="translate(281.56000000000006 143.10000000000002) rotate(358.41) scale(0.33 0.42)" >
  <path d="M 256 512 c -8.657 0 -15.675 -7.018 -15.675 -15.675 V 255.968 c 0 -8.657 7.018 -15.675 15.675 -15.674 c 8.658 -0.001 15.676 7.017 15.676 15.675 v 240.356 C 271.676 504.982 264.658 512 256 512 z" style="stroke: none; stroke-width: 1; stroke-dasharray: none; stroke-linecap: butt; stroke-linejoin: miter; stroke-miterlimit: 10; fill: #c2dc00; fill-rule: nonzero; opacity: 1;" transform=" matrix(1 0 0 1 0 0) " stroke-linecap="round" />
  <path d="M 352.063 39.728 c -52.969 -52.969 -139.157 -52.97 -192.127 0 c -20.562 20.562 -33.136 46.13 -37.734 72.817 c -7.248 42.061 5.328 86.902 37.734 119.311 c 52.97 52.969 139.158 52.968 192.127 0 c 20.563 -20.563 33.137 -46.131 37.735 -72.818 C 397.046 116.975 384.471 72.135 352.063 39.728 z" style="stroke: none; stroke-width: 1; stroke-dasharray: none; stroke-linecap: butt; stroke-linejoin: miter; stroke-miterlimit: 10; fill: #FF0536; fill-rule: nonzero; opacity: 0;" transform=" matrix(1 0 0 1 0 0) " stroke-linecap="round" />
  <path d="M 352.063 39.728 c -52.969 -52.969 -139.157 -52.97 -192.127 0 c -20.562 20.562 -33.136 46.13 -37.734 72.817 c 3.971 8.409 9.422 16.293 16.376 23.247 c 32.424 32.424 84.997 32.425 117.421 0.001 c 32.425 -32.425 84.998 -32.426 117.422 -0.001 c 6.954 6.954 12.406 14.839 16.377 23.248 C 397.046 116.975 384.471 72.135 352.063 39.728 z" style="stroke: none; stroke-width: 1; stroke-dasharray: none; stroke-linecap: butt; stroke-linejoin: miter; stroke-miterlimit: 10; fill: #C10019; fill-rule: nonzero; opacity: 0;" transform=" matrix(1 0 0 1 0 0) " stroke-linecap="round" />
  <path d="M 352.063 39.728 C 325.579 13.243 290.79 0 256 0 v 512 c 8.658 0 15.676 -7.018 15.676 -15.675 v -225.65 c 29.395 -3.386 57.888 -16.322 80.388 -38.821 c 20.563 -20.563 33.137 -46.131 37.735 -72.818 C 397.046 116.975 384.471 72.135 352.063 39.728 z" style="stroke: none; stroke-width: 1; stroke-dasharray: none; stroke-linecap: butt; stroke-linejoin: miter; stroke-miterlimit: 10; fill: rgb(0,0,0); fill-rule: nonzero; opacity: 0;" transform=" matrix(1 0 0 1 0 0) " stroke-linecap="round" />
</g>
</svg>